<svg width="657" height="525" viewBox="0 0 657 525" fill="none" xmlns="http://www.w3.org/2000/svg">
<path d="M594.939 391.286C618.745 393.666 637.863 412.772 640.242 436.563H624.337C608.129 436.563 594.941 423.385 594.941 407.186V391.284M590.289 386.393V407.19C590.289 425.952 605.562 441.215 624.334 441.215H645.138C644.941 411.073 620.447 386.595 590.289 386.395V386.393Z" fill="white"/>
<path d="M579.609 356.794V407.187C579.609 423.386 566.422 436.564 550.214 436.564H499.796C502.314 393.812 536.829 359.313 579.609 356.794ZM584.26 352C535.13 352.202 495.198 392.113 495 441.212H550.212C568.984 441.212 584.257 425.949 584.257 407.187L584.26 352Z" fill="white"/>
<path d="M550.21 451.894C566.417 451.894 579.605 465.074 579.605 481.278V520.182C543.149 517.696 513.77 488.328 511.284 451.894H550.21ZM550.21 447.246H506.467C506.664 490.027 541.451 524.797 584.257 524.999V481.278C584.257 462.516 568.984 447.246 550.212 447.246H550.21Z" fill="white"/>
<path d="M651.755 451.894C649.314 482.007 625.069 506.24 594.939 508.684V481.278C594.939 465.076 608.127 451.894 624.334 451.894H651.755ZM656.608 447.246H624.334C605.562 447.246 590.289 462.516 590.289 481.278V513.534C626.768 513.332 656.41 483.706 656.608 447.246Z" fill="white"/>
<path d="M48.72 155.1C53.06 155.1 56.63 154.68 59.43 153.84C62.37 152.86 64.68 151.6 66.36 150.06C68.04 148.38 69.16 146.56 69.72 144.6C70.42 142.5 70.77 140.4 70.77 138.3C70.77 135.64 70 133.26 68.46 131.16C66.92 129.06 64.96 127.24 62.58 125.7C60.2 124.02 57.54 122.55 54.6 121.29C51.66 119.89 48.72 118.63 45.78 117.51C41.86 116.11 37.8 114.5 33.6 112.68C29.4 110.86 25.55 108.55 22.05 105.75C18.69 102.95 15.89 99.52 13.65 95.46C11.41 91.26 10.29 86.08 10.29 79.92C10.29 67.74 14.21 58.22 22.05 51.36C30.03 44.5 40.95 41.07 54.81 41.07C62.79 41.07 69.72 41.98 75.6 43.8C81.62 45.62 86.66 47.65 90.72 49.89L83.16 69.84C79.66 67.88 75.74 66.2 71.4 64.8C67.2 63.4 62.3 62.7 56.7 62.7C42.98 62.7 36.12 67.67 36.12 77.61C36.12 80.13 36.82 82.37 38.22 84.33C39.62 86.15 41.37 87.83 43.47 89.37C45.71 90.77 48.16 92.03 50.82 93.15C53.62 94.27 56.35 95.32 59.01 96.3C63.07 97.84 67.27 99.59 71.61 101.55C76.09 103.37 80.15 105.89 83.79 109.11C87.57 112.19 90.65 116.11 93.03 120.87C95.41 125.49 96.6 131.37 96.6 138.51C96.6 150.69 92.61 160.14 84.63 166.86C76.79 173.44 64.82 176.73 48.72 176.73C37.94 176.73 29.33 175.61 22.89 173.37C16.45 170.99 11.62 168.82 8.4 166.86L15.96 145.86C19.74 148.1 24.22 150.2 29.4 152.16C34.72 154.12 41.16 155.1 48.72 155.1ZM158.34 103.44C159.88 100.22 161.63 96.16 163.59 91.26C165.69 86.36 167.72 81.18 169.68 75.72C171.78 70.26 173.74 64.73 175.56 59.13C177.52 53.53 179.27 48.49 180.81 44.01H207.48C204.82 51.15 202.16 58.08 199.5 64.8C196.84 71.52 194.04 78.17 191.1 84.75C188.16 91.33 185.01 97.91 181.65 104.49C178.29 110.93 174.65 117.58 170.73 124.44V174H144.69V124.65C136.99 111.07 130.2 97.84 124.32 84.96C118.58 71.94 113.05 58.29 107.73 44.01H135.45C138.67 54.09 142.24 64.38 146.16 74.88C150.08 85.24 154.14 94.76 158.34 103.44ZM258.72 155.1C263.06 155.1 266.63 154.68 269.43 153.84C272.37 152.86 274.68 151.6 276.36 150.06C278.04 148.38 279.16 146.56 279.72 144.6C280.42 142.5 280.77 140.4 280.77 138.3C280.77 135.64 280 133.26 278.46 131.16C276.92 129.06 274.96 127.24 272.58 125.7C270.2 124.02 267.54 122.55 264.6 121.29C261.66 119.89 258.72 118.63 255.78 117.51C251.86 116.11 247.8 114.5 243.6 112.68C239.4 110.86 235.55 108.55 232.05 105.75C228.69 102.95 225.89 99.52 223.65 95.46C221.41 91.26 220.29 86.08 220.29 79.92C220.29 67.74 224.21 58.22 232.05 51.36C240.03 44.5 250.95 41.07 264.81 41.07C272.79 41.07 279.72 41.98 285.6 43.8C291.62 45.62 296.66 47.65 300.72 49.89L293.16 69.84C289.66 67.88 285.74 66.2 281.4 64.8C277.2 63.4 272.3 62.7 266.7 62.7C252.98 62.7 246.12 67.67 246.12 77.61C246.12 80.13 246.82 82.37 248.22 84.33C249.62 86.15 251.37 87.83 253.47 89.37C255.71 90.77 258.16 92.03 260.82 93.15C263.62 94.27 266.35 95.32 269.01 96.3C273.07 97.84 277.27 99.59 281.61 101.55C286.09 103.37 290.15 105.89 293.79 109.11C297.57 112.19 300.65 116.11 303.03 120.87C305.41 125.49 306.6 131.37 306.6 138.51C306.6 150.69 302.61 160.14 294.63 166.86C286.79 173.44 274.82 176.73 258.72 176.73C247.94 176.73 239.33 175.61 232.89 173.37C226.45 170.99 221.62 168.82 218.4 166.86L225.96 145.86C229.74 148.1 234.22 150.2 239.4 152.16C244.72 154.12 251.16 155.1 258.72 155.1ZM406.14 78.24C406.14 82.72 405.3 87.06 403.62 91.26C401.94 95.32 399.7 99.31 396.9 103.23C394.1 107.15 390.95 110.93 387.45 114.57C383.95 118.21 380.38 121.71 376.74 125.07C374.92 126.75 372.82 128.78 370.44 131.16C368.06 133.4 365.82 135.78 363.72 138.3C361.62 140.68 359.8 143.13 358.26 145.65C356.86 148.17 356.16 150.48 356.16 152.58H412.02V174H327.18C326.76 172.6 326.55 170.85 326.55 168.75C326.69 166.65 326.76 165.18 326.76 164.34C326.76 157.34 328.02 150.9 330.54 145.02C333.2 139.14 336.49 133.75 340.41 128.85C344.47 123.81 348.74 119.19 353.22 114.99C357.84 110.65 362.11 106.52 366.03 102.6C370.09 98.68 373.38 94.9 375.9 91.26C378.56 87.62 379.89 83.91 379.89 80.13C379.89 74.81 378.28 70.75 375.06 67.95C371.84 65.01 367.78 63.54 362.88 63.54C358.82 63.54 354.55 64.52 350.07 66.48C345.59 68.44 341.18 71.73 336.84 76.35L324.03 58.29C329.63 52.41 336.07 48.07 343.35 45.27C350.77 42.47 358.12 41.07 365.4 41.07C370.72 41.07 375.83 41.84 380.73 43.38C385.63 44.92 389.97 47.23 393.75 50.31C397.53 53.39 400.54 57.31 402.78 62.07C405.02 66.69 406.14 72.08 406.14 78.24ZM470.61 112.26C467.95 112.26 465.22 112.54 462.42 113.1C459.62 113.66 457.31 114.43 455.49 115.41C455.35 116.67 455.21 117.93 455.07 119.19C455.07 120.45 455.07 121.78 455.07 123.18C455.07 127.24 455.35 131.16 455.91 134.94C456.47 138.58 457.45 141.87 458.85 144.81C460.25 147.75 462.14 150.13 464.52 151.95C467.04 153.63 470.12 154.47 473.76 154.47C476.7 154.47 479.22 153.77 481.32 152.37C483.42 150.97 485.1 149.22 486.36 147.12C487.76 145.02 488.74 142.71 489.3 140.19C490 137.67 490.35 135.22 490.35 132.84C490.35 126.26 488.88 121.22 485.94 117.72C483 114.08 477.89 112.26 470.61 112.26ZM473.97 90.84C481.53 90.84 487.9 91.96 493.08 94.2C498.4 96.44 502.74 99.45 506.1 103.23C509.46 107.01 511.84 111.42 513.24 116.46C514.78 121.5 515.55 126.82 515.55 132.42C515.55 137.46 514.71 142.57 513.03 147.75C511.49 152.93 509.04 157.69 505.68 162.03C502.32 166.37 498.05 169.94 492.87 172.74C487.69 175.4 481.53 176.73 474.39 176.73C459.83 176.73 448.7 172.25 441 163.29C433.44 154.19 429.66 140.05 429.66 120.87C429.66 108.27 431.48 97.14 435.12 87.48C438.9 77.82 444.22 69.7 451.08 63.12C457.94 56.54 466.2 51.57 475.86 48.21C485.52 44.85 496.23 43.17 507.99 43.17L509.46 65.22C503.86 65.36 498.4 65.92 493.08 66.9C487.76 67.88 482.86 69.56 478.38 71.94C473.9 74.18 469.98 77.12 466.62 80.76C463.4 84.4 461.02 88.95 459.48 94.41C462.14 93.29 464.73 92.45 467.25 91.89C469.77 91.19 472.01 90.84 473.97 90.84Z" fill="white"/>
</svg>
