<svg width="126" height="34" viewBox="0 0 126 34" fill="none" xmlns="http://www.w3.org/2000/svg"><path d="M18.7173 6.75977V10.8475C18.7173 14.5367 21.7167 17.5361 25.4059 17.5361H29.4937C29.4528 11.614 24.6445 6.80064 18.7173 6.75977Z" fill="white"/><path d="M0 17.5365H10.8479C14.5371 17.5365 17.5365 14.5371 17.5365 10.8479V0C7.88428 0.0408777 0.0408777 7.88428 0 17.5365Z" fill="white"/><path d="M2.25391 18.7168C2.29478 27.1274 9.12646 33.9591 17.537 33.9999V25.4054C17.537 21.7162 14.5376 18.7168 10.8484 18.7168H2.25391Z" fill="white"/><path d="M25.4059 18.7168C21.7167 18.7168 18.7173 21.7162 18.7173 25.4054V31.7466C25.8862 31.7057 31.7062 25.8857 31.747 18.7168H25.4059Z" fill="white"/><path d="M44.4398 26.2233C42.6156 26.2233 41.0418 25.5693 39.7542 24.2816C38.4665 22.994 37.8125 21.4151 37.8125 19.596C37.8125 17.777 38.4665 16.1981 39.7542 14.9104C41.0418 13.6228 42.6207 12.9688 44.4398 12.9688C46.2588 12.9688 47.8377 13.6177 49.1305 14.9053C50.0298 15.8149 50.6225 16.8675 50.8985 18.0376L50.9189 18.1347H48.3487L48.3283 18.0836C48.1239 17.5573 47.802 17.0821 47.3779 16.658C46.5705 15.8455 45.5793 15.4367 44.4347 15.4367C43.2901 15.4367 42.3039 15.8455 41.4915 16.658C40.679 17.4704 40.2703 18.4566 40.2703 19.6012C40.2703 20.7457 40.6842 21.7319 41.4915 22.5443C42.3039 23.3517 43.2952 23.7656 44.4347 23.7656C45.5741 23.7656 46.5654 23.3568 47.3779 22.5443C47.802 22.1202 48.1239 21.6399 48.3283 21.1187L48.3487 21.0676H50.9189L50.8985 21.1647C50.6225 22.3348 50.0298 23.3823 49.1305 24.2816C47.8377 25.5744 46.2588 26.2336 44.4398 26.2336V26.2233Z" fill="white"/><path d="M66.1872 26.2233H63.7243V24.7671L63.5353 24.9101C62.4009 25.7788 61.0622 26.2233 59.5599 26.2233C57.7357 26.2233 56.162 25.5693 54.8743 24.2816C53.5867 22.994 52.9326 21.4151 52.9326 19.596C52.9326 17.777 53.5867 16.1981 54.8743 14.9104C56.162 13.6228 57.7409 12.9688 59.5599 12.9688C61.379 12.9688 62.9579 13.6228 64.2455 14.9104C65.5332 16.1981 66.1872 17.7719 66.1872 19.596V26.2233ZM59.5548 15.4316C58.4102 15.4316 57.4241 15.8404 56.6116 16.6529C55.8043 17.4653 55.3904 18.4515 55.3904 19.596C55.3904 20.7406 55.8043 21.7268 56.6116 22.5392C57.4241 23.3466 58.4153 23.7605 59.5548 23.7605C60.6943 23.7605 61.6855 23.3517 62.498 22.5392C63.3053 21.7268 63.7192 20.7406 63.7192 19.596C63.7192 18.4515 63.3053 17.4653 62.498 16.6529C61.6907 15.8404 60.6994 15.4316 59.5548 15.4316Z" fill="white"/><path d="M71.6133 26.2239H69.1504V7.56836H71.6133V26.2188V26.2239Z" fill="white"/><path d="M80.6527 26.2247C78.8285 26.2247 77.2547 25.5706 75.9671 24.283C74.6794 22.9953 74.0254 21.4164 74.0254 19.5974C74.0254 17.7783 74.6794 16.1994 75.9671 14.9118C77.2547 13.6241 78.8336 12.9701 80.6527 12.9701C82.1549 12.9701 83.4937 13.4095 84.628 14.2833L84.8171 14.4263V7.57422H87.28V19.5974C87.28 21.4164 86.6259 22.9953 85.3383 24.283C84.0506 25.5706 82.4717 26.2247 80.6527 26.2247ZM80.6527 15.433C79.5081 15.433 78.5219 15.8417 77.7095 16.6542C76.8971 17.4666 76.4883 18.4528 76.4883 19.5974C76.4883 20.7419 76.9022 21.7281 77.7095 22.5406C78.5219 23.3479 79.5132 23.7618 80.6527 23.7618C81.7921 23.7618 82.7834 23.353 83.5959 22.5406C84.4032 21.7281 84.8171 20.7419 84.8171 19.5974C84.8171 18.4528 84.4032 17.4666 83.5959 16.6542C82.7885 15.8417 81.7973 15.433 80.6527 15.433Z" fill="white"/><path d="M96.1805 26.2233C94.3563 26.2233 92.7826 25.5693 91.4949 24.2816C90.2073 22.994 89.5532 21.4151 89.5532 19.596C89.5532 17.777 90.2073 16.1981 91.4949 14.9104C92.7826 13.6228 94.3615 12.9688 96.1805 12.9688C97.9996 12.9688 99.5785 13.6228 100.866 14.9104C102.154 16.1981 102.808 17.7719 102.808 19.596C102.808 19.9946 102.777 20.388 102.716 20.7611L102.706 20.8275H92.1847L92.2409 20.9859C92.4453 21.5582 92.7775 22.0794 93.2373 22.5392C94.0498 23.3466 95.041 23.7605 96.1805 23.7605C97.32 23.7605 98.3113 23.3517 99.1237 22.5392C99.1595 22.5035 99.1901 22.4728 99.2208 22.437L99.2412 22.4115H102.205L102.149 22.5239C101.832 23.1575 101.403 23.7502 100.871 24.2765C99.5785 25.5693 97.9996 26.2284 96.1805 26.2284V26.2233ZM92.1847 18.3646H100.176L100.12 18.2062C99.9157 17.6339 99.5785 17.1127 99.1237 16.6529C98.3164 15.8404 97.3251 15.4316 96.1805 15.4316C95.0359 15.4316 94.0498 15.8404 93.2373 16.6529C92.7775 17.1127 92.4453 17.6339 92.2409 18.2062L92.1847 18.3646Z" fill="white"/><path d="M107.55 26.2241H105.087V19.5968C105.087 17.7726 105.741 16.1988 107.029 14.9112C108.27 13.6695 109.778 13.0155 111.52 12.9746H111.602V15.4375H111.525C110.462 15.4835 109.537 15.8923 108.776 16.6587C107.969 17.4712 107.555 18.4573 107.555 19.6019V26.2292L107.55 26.2241Z" fill="white"/><path d="M125.878 26.2233H123.415V24.7671L123.226 24.9101C122.092 25.7788 120.753 26.2233 119.251 26.2233C117.427 26.2233 115.853 25.5693 114.565 24.2816C113.278 22.994 112.624 21.4151 112.624 19.596C112.624 17.777 113.278 16.1981 114.565 14.9104C115.853 13.6228 117.432 12.9688 119.251 12.9688C121.07 12.9688 122.649 13.6228 123.936 14.9104C125.224 16.1981 125.878 17.7719 125.878 19.596V26.2233ZM119.251 15.4316C118.106 15.4316 117.12 15.8404 116.308 16.6529C115.495 17.4653 115.086 18.4515 115.086 19.596C115.086 20.7406 115.5 21.7268 116.308 22.5392C117.12 23.3466 118.111 23.7605 119.251 23.7605C120.39 23.7605 121.382 23.3517 122.194 22.5392C123.001 21.7268 123.415 20.7406 123.415 19.596C123.415 18.4515 123.001 17.4653 122.194 16.6529C121.387 15.8404 120.395 15.4316 119.251 15.4316Z" fill="white"/></svg>
